<svg width="22" height="23" viewBox="0 0 22 23" fill="none" xmlns="http://www.w3.org/2000/svg">
<path d="M11.025 16.9C11.3916 16.9 11.7043 16.7706 11.963 16.512C12.221 16.254 12.35 15.9416 12.35 15.575V12.85H15.1C15.4666 12.85 15.775 12.725 16.025 12.475C16.275 12.225 16.4 11.9083 16.4 11.525C16.4 11.1583 16.271 10.8456 16.013 10.587C15.7543 10.329 15.4416 10.2 15.075 10.2H12.35V7.39995C12.35 7.03328 12.225 6.72495 11.975 6.47495C11.725 6.22495 11.4083 6.09995 11.025 6.09995C10.6583 6.09995 10.346 6.22895 10.088 6.48695C9.82928 6.74562 9.69995 7.05828 9.69995 7.42495V10.2H6.89995C6.53328 10.2 6.22495 10.325 5.97495 10.575C5.72495 10.825 5.59995 11.1416 5.59995 11.525C5.59995 11.8916 5.72928 12.204 5.98795 12.462C6.24595 12.7206 6.55828 12.85 6.92495 12.85H9.69995V15.6C9.69995 15.9666 9.82495 16.275 10.075 16.525C10.325 16.775 10.6416 16.9 11.025 16.9ZM11 22.2999C9.49995 22.2999 8.09562 22.0166 6.78695 21.45C5.47895 20.8833 4.33762 20.1126 3.36295 19.138C2.38762 18.1626 1.61662 17.0206 1.04995 15.712C0.483284 14.404 0.199951 13 0.199951 11.5C0.199951 9.99995 0.483284 8.59162 1.04995 7.27495C1.61662 5.95828 2.38762 4.81262 3.36295 3.83795C4.33762 2.86262 5.47895 2.09562 6.78695 1.53695C8.09562 0.978951 9.49995 0.699951 11 0.699951C12.5 0.699951 13.9083 0.978951 15.225 1.53695C16.5416 2.09562 17.6876 2.86262 18.663 3.83795C19.6376 4.81262 20.4039 5.95828 20.962 7.27495C21.5206 8.59162 21.7999 9.99995 21.7999 11.5C21.7999 13 21.5206 14.404 20.962 15.712C20.4039 17.0206 19.6376 18.1626 18.663 19.138C17.6876 20.1126 16.5416 20.8833 15.225 21.45C13.9083 22.0166 12.5 22.2999 11 22.2999ZM11 19.65C13.2666 19.65 15.1916 18.8583 16.775 17.275C18.3583 15.6916 19.15 13.7666 19.15 11.5C19.15 9.23328 18.3583 7.30828 16.775 5.72495C15.1916 4.14162 13.2666 3.34995 11 3.34995C8.73328 3.34995 6.80828 4.14162 5.22495 5.72495C3.64162 7.30828 2.84995 9.23328 2.84995 11.5C2.84995 13.7666 3.64162 15.6916 5.22495 17.275C6.80828 18.8583 8.73328 19.65 11 19.65Z" fill="#535AF1"/>
</svg>
