<svg width="18" height="17" viewBox="0 0 18 17" fill="none" xmlns="http://www.w3.org/2000/svg">
<path d="M4.22504 16.8251C3.7917 16.8251 3.45004 16.6624 3.20004 16.337C2.95004 16.0124 2.87504 15.6417 2.97504 15.225L3.57504 12.825H1.77504C1.34171 12.825 0.991705 12.6584 0.725038 12.325C0.458371 11.9917 0.383372 11.6084 0.500038 11.175C0.583372 10.8917 0.741705 10.654 0.975038 10.462C1.20837 10.2707 1.47504 10.175 1.77504 10.175H4.25004L5.07504 6.82505H2.77504C2.3417 6.82505 1.9917 6.65838 1.72504 6.32505C1.45837 5.99171 1.38337 5.60838 1.50004 5.17505C1.58337 4.89172 1.7417 4.65438 1.97504 4.46305C2.20837 4.27105 2.47504 4.17505 2.77504 4.17505H5.75004L6.50004 1.15005C6.58337 0.866716 6.74171 0.633382 6.97504 0.450049C7.20837 0.266716 7.47504 0.175049 7.77504 0.175049C8.20837 0.175049 8.55004 0.337382 8.80004 0.662049C9.05004 0.987382 9.12504 1.35838 9.02504 1.77505L8.42504 4.17505H11.75L12.5 1.15005C12.5834 0.866716 12.7417 0.633382 12.975 0.450049C13.2084 0.266716 13.475 0.175049 13.775 0.175049C14.2084 0.175049 14.55 0.337382 14.8 0.662049C15.05 0.987382 15.125 1.35838 15.025 1.77505L14.425 4.17505H16.225C16.6584 4.17505 17.0084 4.34172 17.275 4.67505C17.5417 5.00838 17.6167 5.39172 17.5 5.82505C17.4167 6.10838 17.2584 6.34572 17.025 6.53705C16.7917 6.72905 16.525 6.82505 16.225 6.82505H13.75L12.925 10.175H15.225C15.6584 10.175 16.0084 10.3417 16.275 10.675C16.5417 11.0084 16.6167 11.3917 16.5 11.825C16.4167 12.1084 16.2584 12.346 16.025 12.538C15.7917 12.7294 15.525 12.825 15.225 12.825H12.25L11.5 15.85C11.4167 16.1334 11.2584 16.3667 11.025 16.55C10.7917 16.7334 10.525 16.8251 10.225 16.8251C9.79171 16.8251 9.45004 16.6624 9.20004 16.337C8.95004 16.0124 8.87504 15.6417 8.97504 15.225L9.57504 12.825H6.25004L5.50004 15.85C5.4167 16.1334 5.25837 16.3667 5.02504 16.55C4.7917 16.7334 4.52504 16.8251 4.22504 16.8251ZM6.92504 10.175H10.25L11.075 6.82505H7.75004L6.92504 10.175Z" fill="#535AF1"/>
</svg>
