<svg width="25" height="24" viewBox="0 0 25 24" fill="none" xmlns="http://www.w3.org/2000/svg">
<g clip-path="url(#clip0_495_4860)">
<path d="M11.9185 10.3733C11.9185 10.3733 10.3972 10.6578 11.6469 8.1689C12.5524 6.35557 12.4619 4.25779 11.6469 3.15557C10.3429 1.36001 7.77105 1.94668 8.04272 2.97779C8.94829 6.49779 6.90171 7.54668 5.83315 9.75112C4.74647 12.0089 4.87325 15.1911 5.36226 18.0356C5.67015 19.8133 6.46704 22 9.36485 22H13.3855L11.9185 10.3733Z" fill="#FFDD67"/>
<path d="M9.81763 21.5022C6.91983 21.5022 6.26783 19.3156 5.95994 17.5378C5.47093 14.6934 5.38038 12.4356 6.34027 10.1245C7.37262 7.63558 8.45929 7.56447 8.45929 2.62225C8.45929 2.37336 8.60418 2.21336 8.73096 2.10669C8.24196 2.26669 7.97029 2.53336 7.97029 2.94225C7.97029 6.64002 6.88361 7.54669 5.81505 9.76891C4.74648 12.0089 4.87326 15.1911 5.36227 18.0356C5.67016 19.8134 6.46705 22 9.36485 22H13.3856V21.5022H9.79952H9.81763Z" fill="#EBA352"/>
<path d="M16.8991 13.271H11.9185C10.1798 13.271 10.1798 10.3555 11.9185 10.3555H16.8991C18.6378 10.3555 18.6378 13.271 16.8991 13.271Z" fill="#FFDD67"/>
<path d="M17.2794 12.7912H12.2988C11.1216 12.7912 10.7412 11.4756 11.1578 10.6045C10.2341 11.2978 10.4696 13.2712 11.9004 13.2712H16.881C17.4424 13.2712 17.8227 12.9689 18.022 12.5423C17.8227 12.6845 17.5692 12.7912 17.2794 12.7912Z" fill="#EBA352"/>
<path d="M17.4243 16.1866H11.4476C9.3648 16.1866 9.3648 13.271 11.4476 13.271H17.4243C19.5071 13.271 19.5071 16.1866 17.4243 16.1866Z" fill="#FFDD67"/>
<path d="M17.8952 15.7067H11.9185C10.5058 15.7067 10.053 14.3911 10.542 13.52C9.41915 14.2134 9.72704 16.1867 11.4476 16.1867H17.4243C18.0944 16.1867 18.5472 15.8845 18.8008 15.4578C18.5653 15.6 18.2574 15.7067 17.8952 15.7067Z" fill="#EBA352"/>
<path d="M16.8628 19.1023H11.8098C10.053 19.1023 10.053 16.1868 11.8098 16.1868H16.8628C18.6196 16.1868 18.6196 19.1023 16.8628 19.1023Z" fill="#FFDD67"/>
<path d="M17.2613 18.6222H12.2083C11.013 18.6222 10.6326 17.3067 11.0492 16.4355C10.1074 17.1289 10.361 19.1022 11.8099 19.1022H16.8629C17.4425 19.1022 17.8228 18.8 18.022 18.3733C17.8228 18.5155 17.5692 18.6222 17.2613 18.6222Z" fill="#EBA352"/>
<path d="M16.3196 22H13.0595C11.176 22 11.176 19.0845 13.0595 19.0845H16.3196C18.2031 19.0845 18.2031 22 16.3196 22Z" fill="#FFDD67"/>
<path d="M16.7542 21.5199H13.4941C12.2263 21.5199 11.8098 20.2044 12.2626 19.3333C11.2483 20.0266 11.52 21.9999 13.0776 21.9999H16.3376C16.9534 21.9999 17.3518 21.6977 17.5692 21.271C17.3518 21.4133 17.0802 21.5199 16.7542 21.5199Z" fill="#EBA352"/>
</g>
<defs>
<clipPath id="clip0_495_4860">
<rect width="20" height="20" fill="white" transform="translate(2 2)"/>
</clipPath>
</defs>
</svg>
